<?xml version="1.0" encoding="iso-8859-1"?>
<!-- Generator: Adobe Illustrator 19.0.0, SVG Export Plug-In . SVG Version: 6.00 Build 0)  -->
<svg version="1.1" id="Capa_1" xmlns="http://www.w3.org/2000/svg" xmlns:xlink="http://www.w3.org/1999/xlink" x="0px" y="0px"
	 viewBox="0 0 512 512" style="enable-background:new 0 0 512 512;" xml:space="preserve">
<path style="fill:#D7E3FF;" d="M124.288,466.818l-35.323,5.996c-1.261,0.21-2.512,0.31-3.744,0.31
	c-10.7,0-20.179-7.717-22.021-18.608l-28.747-169.52L2.343,95.629l-1.772-10.48c-3.713-21.891,11.07-42.71,32.961-46.424
	c21.861-3.703,42.67,11.05,46.404,32.901l1.692,9.969l32.561,191.991l28.397,167.478
	C144.637,453.205,136.429,464.756,124.288,466.818z"/>
<path style="fill:#B5BFF7;" d="M511.422,85.869l-1.842,10.88l-32.23,190.069l-28.557,168.419c-1.001,5.876-4.224,11.02-9.099,14.484
	c-3.824,2.713-8.288,4.124-12.882,4.124c-1.261,0-2.522-0.1-3.784-0.32l-35.323-5.986c-5.886-1.001-11.03-4.224-14.484-9.099
	c-3.463-4.865-4.815-10.78-3.814-16.666l28.527-168.228l32.531-191.871l1.581-9.319c1.802-10.58,7.617-19.829,16.375-26.045
	c8.768-6.226,19.428-8.658,30.038-6.866c10.6,1.802,19.869,7.617,26.095,16.385S513.224,75.269,511.422,85.869z"/>
<path style="fill:#FF712F;" d="M509.58,96.75l-32.23,190.069l-15.675-2.993c-21.2-4.054-42.45-7.477-63.74-10.28
	c-46.754-6.136-93.668-9.229-140.582-9.269c-47.775-0.06-95.55,3.043-143.165,9.309c-21.44,2.813-42.85,6.276-64.22,10.37
	l-15.054,2.893l-0.46-1.852L2.343,95.629l65.612-11.801c4.554-0.771,9.109-1.511,13.673-2.232
	c58.335-9.149,117.04-13.693,175.725-13.613c57.824,0.08,115.639,4.644,173.113,13.693c4.404,0.691,8.798,1.411,13.192,2.152
	L509.58,96.75z"/>
<path style="fill:#FF3636;" d="M509.58,96.75l-32.23,190.069l-15.675-2.993c-21.2-4.054-42.45-7.477-63.74-10.28
	c-46.754-6.136-93.668-9.229-140.582-9.269V67.983c57.824,0.08,115.639,4.644,173.113,13.693c4.404,0.691,8.798,1.411,13.192,2.152
	L509.58,96.75z"/>
<g>
</g>
<g>
</g>
<g>
</g>
<g>
</g>
<g>
</g>
<g>
</g>
<g>
</g>
<g>
</g>
<g>
</g>
<g>
</g>
<g>
</g>
<g>
</g>
<g>
</g>
<g>
</g>
<g>
</g>
</svg>
