<svg id="Layer_1" enable-background="new 0 0 512.186 512.186" height="512" viewBox="0 0 512.186 512.186" width="512" xmlns="http://www.w3.org/2000/svg"><g><g><g><g><ellipse cx="256.093" cy="256.093" fill="#ffeb00" rx="256.093" ry="256.008"/><path d="m256.093.085c-.03 0-.061.001-.091.001v512.013c.03 0 .061.001.091.001 141.436 0 256.093-114.618 256.093-256.008s-114.657-256.007-256.093-256.007z" fill="#fb0"/></g></g></g><g><path d="m143.983 142.374c-3.775 0-7.553-1.416-10.47-4.26-5.932-5.783-6.052-15.279-.269-21.211 11.069-11.354 25.897-17.717 41.752-17.918 15.832-.199 30.839 5.784 42.193 16.854 5.932 5.783 6.052 15.28.269 21.211-5.784 5.932-15.281 6.052-21.211.269-5.616-5.475-13.004-8.438-20.871-8.336-7.842.099-15.177 3.247-20.652 8.863-2.939 3.014-6.838 4.528-10.741 4.528z" fill="#132c63"/></g><g><path d="m305.281 142.374c-3.775 0-7.553-1.416-10.47-4.26-5.932-5.783-6.052-15.279-.269-21.211 11.069-11.354 25.897-17.717 41.752-17.918 15.828-.199 30.839 5.784 42.193 16.854 5.932 5.783 6.052 15.28.269 21.211-5.784 5.932-15.281 6.052-21.211.269-5.616-5.475-13-8.438-20.871-8.336-7.842.099-15.177 3.247-20.652 8.863-2.939 3.014-6.839 4.528-10.741 4.528z" fill="#000f35"/></g><g><ellipse cx="159.809" cy="221.827" fill="#132c63" rx="38.935" ry="38.922"/><g><ellipse cx="352.191" cy="221.827" fill="#000f35" rx="38.935" ry="38.922"/></g></g><path d="m255.992 296.993c-30.751 0-56.166 22.793-60.306 52.403l60.399 32.814 60.213-32.814c-4.14-29.61-29.555-52.403-60.306-52.403z" fill="#fff4f4"/><path d="m255.994 296.993v85.168l.091.049 60.213-32.814c-4.14-29.61-29.554-52.402-60.304-52.403z" fill="#f1e1db"/><path d="m195.686 349.396c-.389 2.781-.604 5.618-.604 8.507 0 33.64 27.27 60.91 60.91 60.91s60.91-27.27 60.91-60.91c0-2.889-.215-5.726-.604-8.507z" fill="#ff001e"/><path d="m255.994 349.396v69.417c33.639-.001 60.908-27.271 60.908-60.91 0-2.889-.215-5.726-.604-8.507z" fill="#c30010"/></g></svg>