<svg width="256" height="256" viewBox="0 0 256 256" fill="none" xmlns="http://www.w3.org/2000/svg">
<g clip-path="url(#clip0)">
<path d="M128 199.5C63.1397 199.5 10.4997 145.398 10.4997 78.903C10.4682 77.8503 10.6455 76.8019 11.0211 75.82C11.3967 74.8381 11.963 73.9427 12.6863 73.1869C13.4095 72.4311 14.2751 71.8304 15.2316 71.4203C16.1882 71.0103 17.2162 70.7992 18.2547 70.7997V70.7997C20.3114 70.7997 22.2839 71.6283 23.7383 73.1033C25.1926 74.5783 26.0097 76.5788 26.0097 78.6647C26.0097 136.58 71.8347 183.531 128 183.531C184.165 183.531 229.99 136.58 229.99 78.903C229.958 77.8503 230.136 76.8019 230.511 75.82C230.887 74.8381 231.453 73.9427 232.176 73.1869C232.9 72.4311 233.765 71.8304 234.722 71.4203C235.678 71.0103 236.706 70.7992 237.745 70.7997V70.7997C239.801 70.7997 241.774 71.6283 243.228 73.1033C244.683 74.5783 245.5 76.5788 245.5 78.6647C245.5 145.398 192.86 199.5 128 199.5Z" fill="#2A3654"/>
<path d="M78.1774 84.8608C78.3053 86.7348 78.0553 88.6155 77.4427 90.3882C76.83 92.1609 75.8675 93.7884 74.6139 95.1713C73.3604 96.5541 71.842 97.6634 70.1517 98.4312C68.4613 99.1991 66.6344 99.6095 64.7824 99.6374C63.1211 99.7028 61.4679 99.3701 59.9572 98.6661C58.4464 97.9621 57.1206 96.9068 56.0874 95.5858V111.792H48.5674V70.7991H56.0874V74.3741C57.1553 73.0937 58.4877 72.067 59.9903 71.3669C61.4929 70.6667 63.1288 70.3102 64.7824 70.3225C66.6133 70.352 68.4197 70.7554 70.0935 71.5086C71.7673 72.2617 73.2743 73.3493 74.5246 74.7062C75.7748 76.0632 76.7426 77.6617 77.3702 79.4064C77.9978 81.1511 78.2723 83.0061 78.1774 84.8608V84.8608ZM70.6574 85.0991C70.6574 80.0941 67.6024 76.5191 63.1374 76.5191C62.0768 76.5472 61.0331 76.7958 60.071 77.2494C59.1089 77.703 58.2488 78.352 57.5439 79.1562C56.839 79.9605 56.3043 80.9028 55.973 81.925C55.6416 82.9473 55.5206 84.0276 55.6174 85.0991C55.6174 87.1218 56.4097 89.0617 57.8199 90.492C59.2302 91.9223 61.143 92.7258 63.1374 92.7258C65.1318 92.7258 67.0446 91.9223 68.4548 90.492C69.8651 89.0617 70.6574 87.1218 70.6574 85.0991V85.0991Z" fill="#2A3654"/>
<path d="M96.5092 93.68C97.7241 93.7203 98.9344 93.5085 100.066 93.0577C101.197 92.6069 102.226 91.9266 103.089 91.0584L107.084 95.3484C103.982 98.1532 99.9598 99.683 95.8042 99.6384C93.8539 99.7386 91.9043 99.4268 90.079 98.7229C88.2537 98.0189 86.5925 96.9381 85.2006 95.5489C83.8087 94.1597 82.7166 92.4924 81.9934 90.6527C81.2701 88.813 80.9316 86.841 80.9992 84.8617C80.9662 82.9231 81.3224 80.9979 82.046 79.2031C82.7695 77.4084 83.8455 75.7817 85.2083 74.4219C86.5711 73.062 88.1923 71.9974 89.9735 71.2929C91.7546 70.5883 93.6584 70.2585 95.5692 70.3234C97.3666 70.2543 99.1585 70.5664 100.83 71.2398C102.502 71.9132 104.017 72.9331 105.277 74.2343C106.538 75.5354 107.517 77.0891 108.152 78.7959C108.787 80.5028 109.064 82.3252 108.964 84.1467V86.53H88.5192C88.6981 88.5315 89.6258 90.3875 91.1116 91.7172C92.5974 93.0468 94.5288 93.7492 96.5092 93.68V93.68ZM101.914 82.0017C101.799 80.2929 101.061 78.6884 99.8457 77.4995C98.6299 76.3105 97.0222 75.6218 95.3342 75.5667C93.6211 75.616 91.9844 76.2964 90.7301 77.4808C89.4758 78.6651 88.6899 80.2723 88.5192 82.0017H101.914Z" fill="#2A3654"/>
<path d="M140.925 70.7991V99.1608H133.64V95.5858C132.607 96.9068 131.281 97.9621 129.77 98.6661C128.26 99.37 126.606 99.7028 124.945 99.6374C123.114 99.6079 121.308 99.2045 119.634 98.4513C117.96 97.6981 116.453 96.6106 115.203 95.2537C113.953 93.8967 112.985 92.2982 112.357 90.5535C111.73 88.8088 111.455 86.9538 111.55 85.0991C111.422 83.2251 111.672 81.3444 112.285 79.5717C112.898 77.799 113.86 76.1715 115.114 74.7886C116.367 73.4058 117.885 72.2965 119.576 71.5287C121.266 70.7608 123.093 70.3504 124.945 70.3225C126.599 70.3102 128.235 70.6667 129.737 71.3669C131.24 72.067 132.572 73.0937 133.64 74.3741V70.7991H140.925ZM134.11 84.8608C134.174 83.8083 134.028 82.7537 133.681 81.7595C133.335 80.7654 132.795 79.8521 132.093 79.0739C131.391 78.2957 130.543 77.6685 129.597 77.2296C128.652 76.7907 127.629 76.5491 126.59 76.5191C125.54 76.5144 124.501 76.7327 123.54 77.1599C122.578 77.5871 121.715 78.2137 121.007 78.9995C120.299 79.7852 119.76 80.7127 119.427 81.7222C119.093 82.7317 118.972 83.8008 119.07 84.8608C119.07 89.8658 122.125 93.4408 126.59 93.4408C127.651 93.4127 128.694 93.1641 129.657 92.7105C130.619 92.2569 131.479 91.6079 132.184 90.8037C132.889 89.9994 133.423 89.0571 133.755 88.0348C134.086 87.0126 134.207 85.9323 134.11 84.8608V84.8608Z" fill="#2A3654"/>
<path d="M146.093 70.8002H153.378V76.9969C153.765 75.558 154.496 74.2382 155.506 73.1547C156.517 72.0712 157.775 71.2575 159.17 70.7859C160.565 70.3143 162.054 70.1994 163.503 70.4514C164.952 70.7033 166.318 71.3144 167.478 72.2302L164.423 78.6652C163.895 78.1543 163.265 77.7626 162.577 77.5162C161.888 77.2697 161.156 77.1739 160.428 77.2352C156.903 77.2352 153.378 81.0486 153.378 87.0069V99.1619H146.093V70.8002Z" fill="#2A3654"/>
<path d="M170.3 89.8667V56.5H177.585V88.9133C177.585 92.4883 179.23 93.4417 181.345 93.4417H183.93L184.635 98.9233C182.768 99.6685 180.764 99.9938 178.76 99.8767C174.53 99.6383 170.3 97.255 170.3 89.8667Z" fill="#2A3654"/>
<path d="M197.089 61.0283C197.121 61.6114 197.035 62.195 196.837 62.7433C196.638 63.2916 196.332 63.7931 195.936 64.217C195.54 64.641 195.063 64.9785 194.534 65.2088C194.004 65.4392 193.434 65.5575 192.859 65.5566C191.674 65.5566 190.539 65.0795 189.701 64.2303C188.864 63.3811 188.394 62.2293 188.394 61.0283C188.454 59.8691 188.951 58.7776 189.782 57.9793C190.613 57.1809 191.714 56.7367 192.859 56.7383C193.414 56.7383 193.964 56.8492 194.477 57.0648C194.991 57.2804 195.457 57.5964 195.85 57.9948C196.242 58.3932 196.554 58.8661 196.767 59.3866C196.979 59.9071 197.089 60.4649 197.089 61.0283ZM196.619 99.1616H189.099V70.8H196.619V99.1616Z" fill="#2A3654"/>
<path d="M209.78 61.0283C209.812 61.6114 209.726 62.195 209.528 62.7433C209.33 63.2916 209.023 63.7931 208.627 64.217C208.231 64.641 207.754 64.9785 207.225 65.2088C206.696 65.4392 206.126 65.5575 205.55 65.5566C204.366 65.5566 203.23 65.0795 202.393 64.2303C201.555 63.3811 201.085 62.2293 201.085 61.0283C201.145 59.8691 201.642 58.7776 202.473 57.9793C203.304 57.1809 204.405 56.7367 205.55 56.7383C206.672 56.7383 207.748 57.1903 208.541 57.9948C209.334 58.7993 209.78 59.8905 209.78 61.0283V61.0283ZM209.075 99.1616H201.79V70.8H209.075V99.1616Z" fill="#2A3654"/>
</g>
<defs>
<clipPath id="clip0">
<rect width="235" height="143" fill="white" transform="translate(10.5 56.5)"/>
</clipPath>
</defs>
</svg>
